<svg width="32" height="32" viewBox="0 0 32 32" fill="none" xmlns="http://www.w3.org/2000/svg">
  <!-- Background circle -->
  <circle cx="16" cy="16" r="16" fill="#fdf2f8"/>
  
  <!-- Mother silhouette -->
  <path d="M8 20c0-2 1-4 3-4s3 2 3 4v2h-6v-2z" fill="#d4a574"/>
  <circle cx="11" cy="14" r="3" fill="#d4a574"/>
  
  <!-- Baby silhouette -->
  <circle cx="20" cy="18" r="2" fill="#8b4513"/>
  <path d="M18 20c0-1 1-2 2-2s2 1 2 2v1h-4v-1z" fill="#8b4513"/>
  
  <!-- Heart symbol -->
  <path d="M16 8c-1-2-3-2-4 0-1 2 0 4 4 6s5-4 4-6c-1-2-3-2-4 0z" fill="#ec4899"/>
  
  <!-- Decorative elements -->
  <circle cx="6" cy="6" r="1" fill="#f9a8d4" opacity="0.6"/>
  <circle cx="26" cy="8" r="1" fill="#f9a8d4" opacity="0.6"/>
  <circle cx="28" cy="24" r="1" fill="#f9a8d4" opacity="0.6"/>
</svg>