<svg xmlns="http://www.w3.org/2000/svg" viewBox="0 0 200 200" role="img" aria-label="Avatar de mãe com black power"><title>Avatar representando mãe negra com empoderamento, orgulho e representatividade</title><circle cx="100" cy="100" r="90" fill="#8D5524"/><circle cx="100" cy="80" r="40" fill="#000000"/><circle cx="75" cy="70" r="15" fill="#000000"/><circle cx="125" cy="70" r="15" fill="#000000"/><circle cx="65" cy="85" r="12" fill="#000000"/><circle cx="135" cy="85" r="12" fill="#000000"/><circle cx="85" cy="60" r="10" fill="#000000"/><circle cx="115" cy="60" r="10" fill="#000000"/><circle cx="70" cy="75" r="8" fill="#000000"/><circle cx="130" cy="75" r="8" fill="#000000"/><ellipse cx="70" cy="90" rx="8" ry="12" fill="#2C3E50"/><ellipse cx="130" cy="90" rx="8" ry="12" fill="#2C3E50"/><ellipse cx="72" cy="88" rx="2" ry="3" fill="#FFFFFF" opacity="0.9"/><ellipse cx="132" cy="88" rx="2" ry="3" fill="#FFFFFF" opacity="0.9"/><path d="M 60 80 Q 70 78 80 80" stroke="#000000" stroke-width="3" fill="none" stroke-linecap="round"/><path d="M 120 80 Q 130 78 140 80" stroke="#000000" stroke-width="3" fill="none" stroke-linecap="round"/><ellipse cx="100" cy="105" rx="3" ry="4" fill="#7A4A1F"/><path d="M 90 125 Q 100 130 110 125" stroke="#8B4513" stroke-width="2" fill="none" stroke-linecap="round"/><circle cx="60" cy="100" r="6" fill="none" stroke="#FFD700" stroke-width="3"/><circle cx="140" cy="100" r="6" fill="none" stroke="#FFD700" stroke-width="3"/><circle cx="75" cy="110" r="8" fill="#FF6B9D" opacity="0.4"/><circle cx="125" cy="110" r="8" fill="#FF6B9D" opacity="0.4"/><g opacity="0.8"><path d="M 40 60 L 45 65 L 40 70 L 35 65 Z" fill="#FFD700"/><path d="M 160 60 L 165 65 L 160 70 L 155 65 Z" fill="#FFD700"/><circle cx="30" cy="100" r="3" fill="#FFD700"/><circle cx="170" cy="100" r="3" fill="#FFD700"/></g></svg>