<svg xmlns="http://www.w3.org/2000/svg" viewBox="0 0 200 200" role="img" aria-label="Avatar de mãe determinada"><title>Avatar representando mãe com força, determinação e empoderamento</title><circle cx="100" cy="100" r="90" fill="#4A2511"/><path d="M 50 60 Q 60 40 70 50 Q 80 45 90 55 Q 100 50 110 55 Q 120 45 130 50 Q 140 40 150 60 Q 145 70 140 65 Q 130 75 120 70 Q 110 80 100 75 Q 90 80 80 70 Q 70 75 60 65 Q 55 70 50 60 Z" fill="#1C1C1C"/><line x1="70" y1="55" x2="70" y2="75" stroke="#FFD700" stroke-width="1"/><line x1="80" y1="60" x2="80" y2="80" stroke="#FFD700" stroke-width="1"/><line x1="90" y1="65" x2="90" y2="85" stroke="#FFD700" stroke-width="1"/><line x1="100" y1="60" x2="100" y2="80" stroke="#FFD700" stroke-width="1"/><line x1="110" y1="65" x2="110" y2="85" stroke="#FFD700" stroke-width="1"/><line x1="120" y1="60" x2="120" y2="80" stroke="#FFD700" stroke-width="1"/><line x1="130" y1="55" x2="130" y2="75" stroke="#FFD700" stroke-width="1"/><ellipse cx="70" cy="90" rx="8" ry="12" fill="#2C3E50"/><ellipse cx="130" cy="90" rx="8" ry="12" fill="#2C3E50"/><ellipse cx="72" cy="88" rx="2" ry="3" fill="#FFFFFF" opacity="0.9"/><ellipse cx="132" cy="88" rx="2" ry="3" fill="#FFFFFF" opacity="0.9"/><circle cx="75" cy="85" r="1" fill="#FFD700"/><circle cx="135" cy="85" r="1" fill="#FFD700"/><path d="M 60 80 Q 70 75 80 80" stroke="#1C1C1C" stroke-width="3" fill="none" stroke-linecap="round"/><path d="M 120 80 Q 130 75 140 80" stroke="#1C1C1C" stroke-width="3" fill="none" stroke-linecap="round"/><ellipse cx="100" cy="105" rx="3" ry="4" fill="#3D1F0A"/><path d="M 90 125 Q 100 128 110 125" stroke="#8B4513" stroke-width="2" fill="none" stroke-linecap="round"/><ellipse cx="100" cy="140" rx="8" ry="4" fill="#4A2511"/><circle cx="60" cy="100" r="4" fill="#FFD700"/><circle cx="140" cy="100" r="4" fill="#FFD700"/></svg>