<svg xmlns="http://www.w3.org/2000/svg" viewBox="0 0 200 200" role="img" aria-label="Avatar de mãe cadeirante"><title>Avatar representando mãe cadeirante com inclusão, maternidade PCD e força</title><circle cx="100" cy="100" r="90" fill="#C68642"/><path d="M 60 50 Q 70 30 80 40 Q 90 35 100 45 Q 110 35 120 40 Q 130 30 140 50 Q 135 60 130 55 Q 120 65 110 60 Q 100 70 90 60 Q 80 65 70 55 Q 65 60 60 50 Z" fill="#6F4E37"/><circle cx="65" cy="45" r="6" fill="#6F4E37"/><circle cx="135" cy="45" r="6" fill="#6F4E37"/><circle cx="70" cy="35" r="5" fill="#6F4E37"/><circle cx="130" cy="35" r="5" fill="#6F4E37"/><ellipse cx="70" cy="90" rx="8" ry="12" fill="#2C3E50"/><ellipse cx="130" cy="90" rx="8" ry="12" fill="#2C3E50"/><ellipse cx="72" cy="88" rx="2" ry="3" fill="#FFFFFF" opacity="0.9"/><ellipse cx="132" cy="88" rx="2" ry="3" fill="#FFFFFF" opacity="0.9"/><path d="M 60 80 Q 70 78 80 80" stroke="#6F4E37" stroke-width="3" fill="none" stroke-linecap="round"/><path d="M 120 80 Q 130 78 140 80" stroke="#6F4E37" stroke-width="3" fill="none" stroke-linecap="round"/><ellipse cx="100" cy="105" rx="3" ry="4" fill="#B87A3A"/><path d="M 90 125 Q 100 130 110 125" stroke="#8B4513" stroke-width="2" fill="none" stroke-linecap="round"/><rect x="85" y="140" width="30" height="25" rx="5" fill="#8B5CF6" opacity="0.8"/><line x1="80" y1="145" x2="80" y2="160" stroke="#8B5CF6" stroke-width="3" stroke-linecap="round"/><line x1="120" y1="145" x2="120" y2="160" stroke="#8B5CF6" stroke-width="3" stroke-linecap="round"/><circle cx="90" cy="170" r="8" fill="none" stroke="#8B5CF6" stroke-width="3"/><circle cx="110" cy="170" r="8" fill="none" stroke="#8B5CF6" stroke-width="3"/><g opacity="0.8"><path d="M 40 60 L 45 65 L 40 70 L 35 65 Z" fill="#FFD700"/><path d="M 160 60 L 165 65 L 160 70 L 155 65 Z" fill="#FFD700"/><circle cx="30" cy="100" r="3" fill="#FFD700"/><circle cx="170" cy="100" r="3" fill="#FFD700"/></g></svg>