<svg xmlns="http://www.w3.org/2000/svg" viewBox="0 0 200 200" role="img" aria-label="Avatar de mãe em oração">
  <title>Avatar representando mãe em momento de oração e paz espiritual</title>
  
  <!-- Face background circle -->
  <circle cx="100" cy="100" r="90" fill="#C68642"/>
  
  <!-- Hair - Long straight with center part -->
  <path d="M 50 60 Q 60 40 70 50 Q 80 45 90 55 Q 100 50 110 55 Q 120 45 130 50 Q 140 40 150 60 Q 145 70 140 65 Q 130 75 120 70 Q 110 80 100 75 Q 90 80 80 70 Q 70 75 60 65 Q 55 70 50 60 Z" fill="#1C1C1C"/>
  
  <!-- Hair part line -->
  <line x1="100" y1="50" x2="100" y2="80" stroke="#1C1C1C" stroke-width="1" opacity="0.3"/>
  
  <!-- Eyes - Closed (peaceful) -->
  <path d="M 65 90 Q 70 85 75 90" stroke="#1C1C1C" stroke-width="3" fill="none" stroke-linecap="round"/>
  <path d="M 125 90 Q 130 85 135 90" stroke="#1C1C1C" stroke-width="3" fill="none" stroke-linecap="round"/>
  
  <!-- Eyebrows - relaxed -->
  <path d="M 60 80 Q 70 78 80 80" stroke="#1C1C1C" stroke-width="2" fill="none" stroke-linecap="round"/>
  <path d="M 120 80 Q 130 78 140 80" stroke="#1C1C1C" stroke-width="2" fill="none" stroke-linecap="round"/>
  
  <!-- Nose -->
  <ellipse cx="100" cy="105" rx="3" ry="4" fill="#B87A3A"/>
  
  <!-- Mouth - gentle smile -->
  <path d="M 90 120 Q 100 125 110 120" stroke="#8B4513" stroke-width="2" fill="none" stroke-linecap="round"/>
  
  <!-- Hands in prayer position -->
  <ellipse cx="85" cy="160" rx="8" ry="12" fill="#C68642" transform="rotate(-15 85 160)"/>
  <ellipse cx="115" cy="160" rx="8" ry="12" fill="#C68642" transform="rotate(15 115 160)"/>
  
  <!-- Subtle halo -->
  <circle cx="100" cy="100" r="95" fill="none" stroke="#FFD700" stroke-width="2" opacity="0.3"/>
</svg>
