<svg xmlns="http://www.w3.org/2000/svg" viewBox="0 0 200 200" role="img" aria-label="Avatar de mãe radiante"><title>Avatar representando mãe com energia renovada e alegria</title><circle cx="100" cy="100" r="90" fill="#FFDFC4"/><path d="M 50 50 Q 60 30 70 40 Q 80 25 90 35 Q 100 20 110 35 Q 120 25 130 40 Q 140 30 150 50 Q 145 60 140 55 Q 130 65 120 60 Q 110 70 100 65 Q 90 70 80 60 Q 70 65 60 55 Q 55 60 50 50 Z" fill="#F4A460"/><circle cx="55" cy="45" r="8" fill="#F4A460"/><circle cx="145" cy="45" r="8" fill="#F4A460"/><circle cx="60" cy="35" r="6" fill="#F4A460"/><circle cx="140" cy="35" r="6" fill="#F4A460"/><path d="M 65 85 Q 70 80 75 85 Q 70 90 65 85 Z" fill="#2C3E50"/><path d="M 125 85 Q 130 80 135 85 Q 130 90 125 85 Z" fill="#2C3E50"/><circle cx="70" cy="82" r="3" fill="#FFFFFF"/><circle cx="130" cy="82" r="3" fill="#FFFFFF"/><path d="M 60 75 Q 70 70 80 75" stroke="#F4A460" stroke-width="3" fill="none" stroke-linecap="round"/><path d="M 120 75 Q 130 70 140 75" stroke="#F4A460" stroke-width="3" fill="none" stroke-linecap="round"/><ellipse cx="100" cy="105" rx="3" ry="4" fill="#F0D0A0"/><ellipse cx="100" cy="125" rx="15" ry="8" fill="#8B4513"/><ellipse cx="100" cy="125" rx="12" ry="6" fill="#FFFFFF"/><circle cx="75" cy="110" r="8" fill="#FF6B9D" opacity="0.3"/><circle cx="125" cy="110" r="8" fill="#FF6B9D" opacity="0.3"/><g opacity="0.8"><path d="M 40 60 L 45 65 L 40 70 L 35 65 Z" fill="#FFD700"/><path d="M 160 60 L 165 65 L 160 70 L 155 65 Z" fill="#FFD700"/><path d="M 50 140 L 55 145 L 50 150 L 45 145 Z" fill="#FFD700"/><path d="M 150 140 L 155 145 L 150 150 L 145 145 Z" fill="#FFD700"/><circle cx="30" cy="100" r="3" fill="#FFD700"/><circle cx="170" cy="100" r="3" fill="#FFD700"/></g></svg>