<svg xmlns="http://www.w3.org/2000/svg" viewBox="0 0 200 200" role="img" aria-label="Avatar de mãe asiática"><title>Avatar representando mãe asiática com diversidade étnica e serenidade</title><circle cx="100" cy="100" r="90" fill="#FFDFC4"/><path d="M 50 60 Q 60 40 70 50 Q 80 45 90 55 Q 100 50 110 55 Q 120 45 130 50 Q 140 40 150 60 Q 145 70 140 65 Q 130 75 120 70 Q 110 80 100 75 Q 90 80 80 70 Q 70 75 60 65 Q 55 70 50 60 Z" fill="#1C1C1C"/><path d="M 70 50 Q 80 45 90 50 Q 100 45 110 50 Q 120 45 130 50" stroke="#1C1C1C" stroke-width="8" fill="none" stroke-linecap="round"/><ellipse cx="70" cy="90" rx="6" ry="10" fill="#2C3E50"/><ellipse cx="130" cy="90" rx="6" ry="10" fill="#2C3E50"/><ellipse cx="71" cy="88" rx="1.5" ry="2" fill="#FFFFFF" opacity="0.9"/><ellipse cx="131" cy="88" rx="1.5" ry="2" fill="#FFFFFF" opacity="0.9"/><line x1="65" y1="80" x2="75" y2="80" stroke="#1C1C1C" stroke-width="2" stroke-linecap="round"/><line x1="125" y1="80" x2="135" y2="80" stroke="#1C1C1C" stroke-width="2" stroke-linecap="round"/><ellipse cx="100" cy="105" rx="2" ry="3" fill="#F0D0A0"/><path d="M 95 120 Q 100 122 105 120" stroke="#8B4513" stroke-width="1.5" fill="none" stroke-linecap="round"/><circle cx="70" cy="90" r="12" fill="none" stroke="#8B5CF6" stroke-width="2" opacity="0.7"/><circle cx="130" cy="90" r="12" fill="none" stroke="#8B5CF6" stroke-width="2" opacity="0.7"/><line x1="82" y1="90" x2="118" y2="90" stroke="#8B5CF6" stroke-width="2" opacity="0.7"/><circle cx="80" cy="110" r="5" fill="#FF6B9D" opacity="0.3"/><circle cx="120" cy="110" r="5" fill="#FF6B9D" opacity="0.3"/></svg>