<svg xmlns="http://www.w3.org/2000/svg" viewBox="0 0 200 200" role="img" aria-label="Avatar de m達e pensativa"><title>Avatar representando m達e em momento de reflex達o e tomada de decis達o</title><circle cx="100" cy="100" r="90" fill="#8D5524"/><circle cx="100" cy="80" r="35" fill="#000000"/><circle cx="80" cy="70" r="12" fill="#000000"/><circle cx="120" cy="70" r="12" fill="#000000"/><circle cx="70" cy="85" r="10" fill="#000000"/><circle cx="130" cy="85" r="10" fill="#000000"/><circle cx="90" cy="60" r="8" fill="#000000"/><circle cx="110" cy="60" r="8" fill="#000000"/><ellipse cx="75" cy="90" rx="8" ry="12" fill="#2C3E50"/><ellipse cx="125" cy="90" rx="8" ry="12" fill="#2C3E50"/><ellipse cx="77" cy="88" rx="2" ry="3" fill="#FFFFFF" opacity="0.9"/><ellipse cx="127" cy="88" rx="2" ry="3" fill="#FFFFFF" opacity="0.9"/><path d="M 65 80 Q 75 78 85 80" stroke="#000000" stroke-width="3" fill="none" stroke-linecap="round"/><path d="M 115 80 Q 125 75 135 80" stroke="#000000" stroke-width="3" fill="none" stroke-linecap="round"/><ellipse cx="100" cy="105" rx="3" ry="4" fill="#7A4A1F"/><ellipse cx="100" cy="125" rx="6" ry="3" fill="#8B4513"/><ellipse cx="120" cy="140" rx="6" ry="15" fill="#8D5524" transform="rotate(20 120 140)"/><ellipse cx="125" cy="150" rx="4" ry="8" fill="#8D5524" transform="rotate(30 125 150)"/><g opacity="0.6"><circle cx="140" cy="120" r="8" fill="#8B5CF6"/><circle cx="150" cy="115" r="6" fill="#8B5CF6"/><circle cx="155" cy="125" r="4" fill="#8B5CF6"/></g></svg>