<svg width="200" height="200" viewBox="0 0 200 200" xmlns="http://www.w3.org/2000/svg">
  <!-- Background circle -->
  <circle cx="100" cy="100" r="95" fill="#F5E6D3" stroke="#E8D5C4" stroke-width="2"/>
  
  <!-- Mother -->
  <g id="mother">
    <!-- Hair - Long wavy brown hair -->
    <path d="M 50 40 Q 40 30 50 20 Q 60 15 70 20 Q 80 25 90 30 Q 100 25 110 30 Q 120 25 130 20 Q 140 15 150 20 Q 160 30 150 40 Q 140 50 130 45 Q 120 40 110 45 Q 100 40 90 45 Q 80 40 70 45 Q 60 50 50 40" 
          fill="#8B4513" stroke="#654321" stroke-width="2"/>
    
    <!-- Face -->
    <circle cx="100" cy="75" r="25" fill="#FDBCB4" stroke="#E8A598" stroke-width="2"/>
    
    <!-- Eyes - Closed with long eyelashes -->
    <path d="M 85 70 Q 100 73 115 70" stroke="#8B4513" stroke-width="2" fill="none"/>
    <path d="M 85 72 Q 100 75 115 72" stroke="#8B4513" stroke-width="2" fill="none"/>
    
    <!-- Eyelashes -->
    <path d="M 88 68 L 90 62" stroke="#2C1810" stroke-width="2"/>
    <path d="M 92 68 L 94 62" stroke="#2C1810" stroke-width="2"/>
    <path d="M 96 68 L 98 62" stroke="#2C1810" stroke-width="2"/>
    <path d="M 102 68 L 104 62" stroke="#2C1810" stroke-width="2"/>
    <path d="M 106 68 L 108 62" stroke="#2C1810" stroke-width="2"/>
    <path d="M 110 68 L 112 62" stroke="#2C1810" stroke-width="2"/>
    
    <!-- Eyebrows - Gently arched -->
    <path d="M 80 65 Q 100 62 120 65" stroke="#8B4513" stroke-width="3" fill="none"/>
    
    <!-- Nose -->
    <path d="M 100 75 L 98 82 L 100 82 L 102 82 Z" fill="#E8A598"/>
    
    <!-- Gentle smile -->
    <path d="M 85 85 Q 100 90 115 85" stroke="#E8A598" stroke-width="2" fill="none"/>
    
    <!-- Body - Dark camisole with lace pattern -->
    <rect x="75" y="100" width="50" height="60" rx="10" fill="#2C2C2C" stroke="#1A1A1A" stroke-width="2"/>
    
    <!-- Lace pattern on chest -->
    <g id="lace-pattern">
      <!-- Floral motifs -->
      <circle cx="85" cy="110" r="2" fill="none" stroke="#E0E0E0" stroke-width="1"/>
      <circle cx="95" cy="110" r="2" fill="none" stroke="#E0E0E0" stroke-width="1"/>
      <circle cx="105" cy="110" r="2" fill="none" stroke="#E0E0E0" stroke-width="1"/>
      <circle cx="115" cy="110" r="2" fill="none" stroke="#E0E0E0" stroke-width="1"/>
      
      <!-- Connecting lines -->
      <path d="M 87 110 L 93 110" stroke="#E0E0E0" stroke-width="1" fill="none"/>
      <path d="M 97 110 L 103 110" stroke="#E0E0E0" stroke-width="1" fill="none"/>
      <path d="M 107 110 L 113 110" stroke="#E0E0E0" stroke-width="1" fill="none"/>
      
      <!-- Leaf motifs -->
      <path d="M 90 108 Q 88 106 90 104 Q 92 106 90 108" fill="#E0E0E0"/>
      <path d="M 100 108 Q 98 106 100 104 Q 102 106 100 108" fill="#E0E0E0"/>
      <path d="M 110 108 Q 108 106 110 104 Q 112 106 110 108" fill="#E0E0E0"/>
    </g>
    
    <!-- Arms -->
    <ellipse cx="65" cy="120" rx="12" ry="30" fill="#FDBCB4" stroke="#E8A598" stroke-width="2"/>
    <ellipse cx="135" cy="120" rx="12" ry="30" fill="#FDBCB4" stroke="#E8A598" stroke-width="2"/>
    
    <!-- Left hand supporting baby -->
    <ellipse cx="60" cy="140" rx="6" ry="8" fill="#FDBCB4" stroke="#E8A598" stroke-width="2"/>
    
    <!-- Right hand cradling baby -->
    <ellipse cx="140" cy="140" rx="6" ry="8" fill="#FDBCB4" stroke="#E8A598" stroke-width="2"/>
  </g>
  
  <!-- Baby -->
  <g id="baby">
    <!-- Baby head - darker skin tone -->
    <circle cx="100" cy="130" r="16" fill="#D2B48C" stroke="#CD853F" stroke-width="2"/>
    
    <!-- Baby hair - dark and slightly messy -->
    <path d="M 84 118 Q 80 113 84 108 Q 90 103 100 108 Q 110 103 116 108 Q 120 113 116 118 Q 110 123 100 118 Q 90 123 84 118" 
          fill="#2C1810" stroke="#1A0F0A" stroke-width="2"/>
    
    <!-- Baby eyes (closed - sleeping) -->
    <path d="M 90 125 Q 100 123 110 125" stroke="#2C1810" stroke-width="2" fill="none"/>
    <path d="M 90 127 Q 100 125 110 127" stroke="#2C1810" stroke-width="2" fill="none"/>
    
    <!-- Baby mouth - small closed lips -->
    <path d="M 95 135 Q 100 137 105 135" stroke="#CD853F" stroke-width="1" fill="none"/>
    
    <!-- Baby body - Light colored sleeper -->
    <ellipse cx="100" cy="160" rx="20" ry="30" fill="#E6F3FF" stroke="#B3D9FF" stroke-width="2"/>
    
    <!-- Baby pattern on sleeper - light blue circular patterns -->
    <circle cx="85" cy="150" r="1.5" fill="#B3D9FF"/>
    <circle cx="95" cy="150" r="1.5" fill="#B3D9FF"/>
    <circle cx="105" cy="150" r="1.5" fill="#B3D9FF"/>
    <circle cx="115" cy="150" r="1.5" fill="#B3D9FF"/>
    
    <circle cx="90" cy="160" r="1" fill="#B3D9FF"/>
    <circle cx="100" cy="160" r="1" fill="#B3D9FF"/>
    <circle cx="110" cy="160" r="1" fill="#B3D9FF"/>
    
    <circle cx="85" cy="170" r="1.5" fill="#B3D9FF"/>
    <circle cx="95" cy="170" r="1.5" fill="#B3D9FF"/>
    <circle cx="105" cy="170" r="1.5" fill="#B3D9FF"/>
    <circle cx="115" cy="170" r="1.5" fill="#B3D9FF"/>
    
    <!-- Baby hands -->
    <ellipse cx="80" cy="155" rx="4" ry="6" fill="#D2B48C" stroke="#CD853F" stroke-width="2"/>
    <ellipse cx="120" cy="155" rx="4" ry="6" fill="#D2B48C" stroke="#CD853F" stroke-width="2"/>
    
    <!-- Baby hand near face -->
    <ellipse cx="85" cy="140" rx="3" ry="4" fill="#D2B48C" stroke="#CD853F" stroke-width="2"/>
  </g>
  
  <!-- Background elements - subtle curved line suggesting pillow -->
  <path d="M 120 50 Q 140 45 160 50" stroke="#E8D5C4" stroke-width="2" fill="none" opacity="0.5"/>
  
  <!-- Text -->
  <text x="100" y="190" text-anchor="middle" font-family="Inter, sans-serif" font-size="12" font-weight="600" fill="#FF6B9D">
    ClubNath
  </text>
</svg>
