<svg width="200" height="200" viewBox="0 0 200 200" xmlns="http://www.w3.org/2000/svg">
  <!-- Background circle -->
  <circle cx="100" cy="100" r="95" fill="#F5E6D3" stroke="#E8D5C4" stroke-width="2"/>
  
  <!-- Mother -->
  <g id="mother">
    <!-- Hair - Long flowing brown hair -->
    <path d="M 50 40 Q 40 30 50 20 Q 60 15 70 20 Q 80 25 90 30 Q 100 25 110 30 Q 120 25 130 20 Q 140 15 150 20 Q 160 30 150 40 Q 140 50 130 45 Q 120 40 110 45 Q 100 40 90 45 Q 80 40 70 45 Q 60 50 50 40" 
          fill="#8B4513" stroke="#654321" stroke-width="2"/>
    
    <!-- Face -->
    <circle cx="100" cy="70" r="20" fill="#FDBCB4" stroke="#E8A598" stroke-width="2"/>
    
    <!-- Eyes -->
    <ellipse cx="92" cy="65" rx="3" ry="4" fill="#2C1810"/>
    <ellipse cx="108" cy="65" rx="3" ry="4" fill="#2C1810"/>
    
    <!-- Eyebrows -->
    <path d="M 85 58 Q 92 55 99 58" stroke="#8B4513" stroke-width="2" fill="none"/>
    <path d="M 101 58 Q 108 55 115 58" stroke="#8B4513" stroke-width="2" fill="none"/>
    
    <!-- Nose -->
    <path d="M 100 70 L 98 75 L 100 75 L 102 75 Z" fill="#E8A598"/>
    
    <!-- Smile -->
    <path d="M 88 80 Q 100 85 112 80" stroke="#E8A598" stroke-width="2" fill="none"/>
    
    <!-- Body - White tank top -->
    <rect x="80" y="90" width="40" height="50" rx="8" fill="white" stroke="#E0E0E0" stroke-width="2"/>
    
    <!-- Arms -->
    <ellipse cx="70" cy="110" rx="10" ry="25" fill="#FDBCB4" stroke="#E8A598" stroke-width="2"/>
    <ellipse cx="130" cy="110" rx="10" ry="25" fill="#FDBCB4" stroke="#E8A598" stroke-width="2"/>
    
    <!-- Rose tattoos on arms -->
    <g id="rose-tattoo-left">
      <circle cx="65" cy="105" r="4" fill="none" stroke="#D4AF37" stroke-width="2"/>
      <path d="M 65 101 Q 62 99 59 101 Q 62 103 65 101" fill="#D4AF37"/>
      <path d="M 65 101 Q 68 99 71 101 Q 68 103 65 101" fill="#D4AF37"/>
      <path d="M 65 101 Q 63 98 65 95 Q 67 98 65 101" fill="#D4AF37"/>
    </g>
    
    <g id="rose-tattoo-right">
      <circle cx="135" cy="105" r="4" fill="none" stroke="#D4AF37" stroke-width="2"/>
      <path d="M 135 101 Q 132 99 129 101 Q 132 103 135 101" fill="#D4AF37"/>
      <path d="M 135 101 Q 138 99 141 101 Q 138 103 135 101" fill="#D4AF37"/>
      <path d="M 135 101 Q 133 98 135 95 Q 137 98 135 101" fill="#D4AF37"/>
    </g>
    
    <!-- Rose tattoo on thigh -->
    <g id="rose-tattoo-thigh">
      <circle cx="120" cy="130" r="3" fill="none" stroke="#D4AF37" stroke-width="2"/>
      <path d="M 120 127 Q 118 125 116 127 Q 118 129 120 127" fill="#D4AF37"/>
      <path d="M 120 127 Q 122 125 124 127 Q 122 129 120 127" fill="#D4AF37"/>
    </g>
  </g>
  
  <!-- Baby -->
  <g id="baby">
    <!-- Baby head -->
    <circle cx="100" cy="120" r="14" fill="#FDBCB4" stroke="#E8A598" stroke-width="2"/>
    
    <!-- Baby hair -->
    <path d="M 86 108 Q 83 103 86 98 Q 93 93 100 98 Q 107 93 114 98 Q 117 103 114 108 Q 107 113 100 108 Q 93 113 86 108" 
          fill="#8B4513" stroke="#654321" stroke-width="2"/>
    
    <!-- Baby eyes (closed - sleeping) -->
    <path d="M 92 115 Q 100 113 108 115" stroke="#8B4513" stroke-width="2" fill="none"/>
    <path d="M 92 117 Q 100 115 108 117" stroke="#8B4513" stroke-width="2" fill="none"/>
    
    <!-- Baby body - Light blue/grey onesie -->
    <ellipse cx="100" cy="150" rx="18" ry="25" fill="#E6F3FF" stroke="#B3D9FF" stroke-width="2"/>
    
    <!-- Baby pattern on onesie - white rose pattern -->
    <circle cx="90" cy="145" r="1.5" fill="white"/>
    <circle cx="110" cy="145" r="1.5" fill="white"/>
    <circle cx="100" cy="155" r="1.5" fill="white"/>
    <circle cx="95" cy="160" r="1" fill="white"/>
    <circle cx="105" cy="160" r="1" fill="white"/>
  </g>
  
  <!-- Dog -->
  <g id="dog">
    <!-- Dog head -->
    <circle cx="140" cy="145" r="15" fill="#F5F5DC" stroke="#E0E0E0" stroke-width="2"/>
    
    <!-- Dog ears -->
    <ellipse cx="128" cy="135" rx="5" ry="10" fill="#F5F5DC" stroke="#E0E0E0" stroke-width="2"/>
    <ellipse cx="152" cy="135" rx="5" ry="10" fill="#F5F5DC" stroke="#E0E0E0" stroke-width="2"/>
    
    <!-- Dog eyes -->
    <circle cx="133" cy="140" r="3" fill="#2C1810"/>
    <circle cx="147" cy="140" r="3" fill="#2C1810"/>
    
    <!-- Dog nose -->
    <circle cx="140" cy="148" r="2" fill="#2C1810"/>
    
    <!-- Dog body -->
    <ellipse cx="140" cy="170" rx="25" ry="18" fill="#F5F5DC" stroke="#E0E0E0" stroke-width="2"/>
    
    <!-- Dog hoodie - Bright blue -->
    <rect x="115" y="155" width="50" height="25" rx="5" fill="#4169E1" stroke="#1E3A8A" stroke-width="2"/>
    <rect x="110" y="160" width="15" height="20" rx="3" fill="#4169E1" stroke="#1E3A8A" stroke-width="2"/>
    <rect x="155" y="160" width="15" height="20" rx="3" fill="#4169E1" stroke="#1E3A8A" stroke-width="2"/>
    
    <!-- Dog expression - slightly melancholic -->
    <path d="M 135 155 Q 140 158 145 155" stroke="#2C1810" stroke-width="1" fill="none"/>
  </g>
  
  <!-- Text -->
  <text x="100" y="190" text-anchor="middle" font-family="Inter, sans-serif" font-size="12" font-weight="600" fill="#FF6B9D">
    ClubNath
  </text>
</svg>
