<svg width="200" height="200" viewBox="0 0 200 200" xmlns="http://www.w3.org/2000/svg">
  <!-- Background circle -->
  <circle cx="100" cy="100" r="95" fill="#F5E6D3" stroke="#E8D5C4" stroke-width="2"/>
  
  <!-- Nath -->
  <g id="nath">
    <!-- Hair - Long flowing brown hair -->
    <path d="M 50 40 Q 40 30 50 20 Q 60 15 70 20 Q 80 25 90 30 Q 100 25 110 30 Q 120 25 130 20 Q 140 15 150 20 Q 160 30 150 40 Q 140 50 130 45 Q 120 40 110 45 Q 100 40 90 45 Q 80 40 70 45 Q 60 50 50 40" 
          fill="#8B4513" stroke="#654321" stroke-width="2"/>
    
    <!-- Face -->
    <circle cx="100" cy="75" r="25" fill="#FDBCB4" stroke="#E8A598" stroke-width="2"/>
    
    <!-- Blush -->
    <circle cx="80" cy="80" r="4" fill="#FFB6C1" opacity="0.7"/>
    <circle cx="120" cy="80" r="4" fill="#FFB6C1" opacity="0.7"/>
    
    <!-- Eyes - Large, dark brown, almond-shaped -->
    <ellipse cx="88" cy="70" rx="5" ry="7" fill="#2C1810"/>
    <ellipse cx="112" cy="70" rx="5" ry="7" fill="#2C1810"/>
    
    <!-- Eyebrows - Dark brown, well-defined, arched -->
    <path d="M 80 62 Q 88 59 96 62" stroke="#8B4513" stroke-width="3" fill="none"/>
    <path d="M 104 62 Q 112 59 120 62" stroke="#8B4513" stroke-width="3" fill="none"/>
    
    <!-- Eyelashes - Long, dark -->
    <path d="M 85 65 L 87 58" stroke="#2C1810" stroke-width="2"/>
    <path d="M 90 65 L 92 58" stroke="#2C1810" stroke-width="2"/>
    <path d="M 95 65 L 97 58" stroke="#2C1810" stroke-width="2"/>
    <path d="M 105 65 L 107 58" stroke="#2C1810" stroke-width="2"/>
    <path d="M 110 65 L 112 58" stroke="#2C1810" stroke-width="2"/>
    <path d="M 115 65 L 117 58" stroke="#2C1810" stroke-width="2"/>
    
    <!-- Nose -->
    <path d="M 100 75 L 98 82 L 100 82 L 102 82 Z" fill="#E8A598"/>
    
    <!-- Mouth - Wide, open-mouthed smile -->
    <path d="M 80 90 Q 100 100 120 90" stroke="#E8A598" stroke-width="3" fill="none"/>
    <path d="M 80 90 Q 100 95 120 90" stroke="#E8A598" stroke-width="2" fill="none"/>
    
    <!-- Teeth -->
    <rect x="90" y="90" width="3" height="4" fill="white"/>
    <rect x="94" y="90" width="3" height="4" fill="white"/>
    <rect x="98" y="90" width="3" height="4" fill="white"/>
    <rect x="102" y="90" width="3" height="4" fill="white"/>
    <rect x="106" y="90" width="3" height="4" fill="white"/>
    
    <!-- Tongue -->
    <ellipse cx="100" cy="94" rx="4" ry="3" fill="#FFB6C1"/>
    
    <!-- Body - Red tank top -->
    <rect x="75" y="100" width="50" height="60" rx="10" fill="#DC143C" stroke="#B22222" stroke-width="2"/>
    
    <!-- Arms -->
    <ellipse cx="65" cy="120" rx="12" ry="30" fill="#FDBCB4" stroke="#E8A598" stroke-width="2"/>
    <ellipse cx="135" cy="120" rx="12" ry="30" fill="#FDBCB4" stroke="#E8A598" stroke-width="2"/>
    
    <!-- Earring - Large gold hoop -->
    <circle cx="130" cy="110" r="6" fill="none" stroke="#FFD700" stroke-width="3"/>
    <circle cx="130" cy="110" r="3" fill="#FFD700"/>
    
    <!-- Choker necklace - Black with white beads -->
    <rect x="80" y="105" width="40" height="4" rx="2" fill="black"/>
    <circle cx="85" cy="107" r="1.5" fill="white"/>
    <circle cx="90" cy="107" r="1.5" fill="white"/>
    <circle cx="95" cy="107" r="1.5" fill="white"/>
    <circle cx="100" cy="107" r="1.5" fill="white"/>
    <circle cx="105" cy="107" r="1.5" fill="white"/>
    <circle cx="110" cy="107" r="1.5" fill="white"/>
    <circle cx="115" cy="107" r="1.5" fill="white"/>
    
    <!-- Rose tattoo on left arm -->
    <g id="rose-tattoo">
      <circle cx="60" cy="115" r="5" fill="none" stroke="#D4AF37" stroke-width="2"/>
      <path d="M 60 110 Q 56 108 52 110 Q 56 112 60 110" fill="#D4AF37"/>
      <path d="M 60 110 Q 64 108 68 110 Q 64 112 60 110" fill="#D4AF37"/>
      <path d="M 60 110 Q 58 107 60 104 Q 62 107 60 110" fill="#D4AF37"/>
      <path d="M 60 110 Q 58 113 60 116 Q 62 113 60 110" fill="#D4AF37"/>
    </g>
    
    <!-- Mole on chest -->
    <circle cx="100" cy="90" r="1.5" fill="#2C1810"/>
  </g>
  
  <!-- Text -->
  <text x="100" y="190" text-anchor="middle" font-family="Inter, sans-serif" font-size="12" font-weight="600" fill="#FF6B9D">
    Nath
  </text>
</svg>
